<?xml version="1.0" encoding="utf-8"?>
<!-- Generator: Adobe Illustrator 23.0.2, SVG Export Plug-In . SVG Version: 6.00 Build 0)  -->
<svg version="1.1" id="Layer_1" xmlns="http://www.w3.org/2000/svg" xmlns:xlink="http://www.w3.org/1999/xlink" x="0px" y="0px" fill="currentColor"
	 viewBox="0 0 512 512" style="enable-background:new 0 0 512 512;" xml:space="preserve">
<g>
	<path d="M256,512c-34.56,0-68.08-6.77-99.65-20.12c-30.49-12.89-57.86-31.35-81.37-54.86s-41.97-50.89-54.86-81.37
		C6.77,324.08,0,290.56,0,256c0-34.56,6.77-68.08,20.12-99.65c12.89-30.49,31.35-57.86,54.86-81.37s50.89-41.97,81.37-54.86
		C187.92,6.77,221.44,0,256,0c34.56,0,68.08,6.77,99.65,20.12c30.49,12.89,57.86,31.35,81.37,54.86s41.97,50.89,54.86,81.37
		C505.23,187.92,512,221.44,512,256c0,34.56-6.77,68.08-20.12,99.65c-12.89,30.49-31.35,57.86-54.86,81.37s-50.89,41.97-81.37,54.86
		C324.08,505.23,290.56,512,256,512z M256,14.22C122.68,14.22,14.22,122.68,14.22,256S122.68,497.78,256,497.78
		S497.78,389.32,497.78,256S389.32,14.22,256,14.22z"/>
</g>
<g id="_241958312">
	<path d="M256,426.42c-94.12,0-170.43-76.29-170.43-170.42c0-45.2,17.95-88.55,49.92-120.52c66.56-66.56,174.46-66.56,241.02,0
		s66.56,174.46,0,241.02C344.62,408.57,301.22,426.55,256,426.42z M256,97.28c-87.52,0-158.72,71.2-158.72,158.72
		S168.48,414.72,256,414.72S414.72,343.52,414.72,256S343.52,97.28,256,97.28z"/>
</g>
<g id="_241958480">
	<path d="M256,374.01c-3.28,0-6.58-0.14-9.83-0.41c-3.21-0.35-5.53-3.24-5.18-6.45c0.34-3.09,3.04-5.38,6.15-5.21
		c2.93,0.24,5.92,0.37,8.86,0.37c28.69,0.09,56.17-11.5,76.13-32.11c2.3-2.27,6.01-2.23,8.27,0.07c2.2,2.23,2.24,5.8,0.11,8.09
		C318.36,361.24,287.85,374.11,256,374.01z M200.57,359.38c-1.01,0-2.01-0.27-2.89-0.77c-28-15.98-48.28-42.67-56.17-73.93
		c-0.79-3.14,1.12-6.32,4.26-7.1c3.14-0.79,6.32,1.12,7.1,4.26c7.11,28.16,25.39,52.2,50.61,66.6c2.81,1.6,3.79,5.17,2.19,7.98
		c-1.05,1.83-3,2.96-5.11,2.95L200.57,359.38z M361.06,301.2c-3.23,0-5.85-2.62-5.85-5.85c0-0.7,0.13-1.39,0.37-2.05
		c14.58-39.03,5.04-82.99-24.41-112.46c-2.29-2.29-2.29-5.99,0-8.28c2.29-2.29,5.99-2.29,8.28,0
		c32.68,32.73,43.26,81.53,27.06,124.85C365.66,299.69,363.48,301.19,361.06,301.2z M144.55,249.12c-0.22,0-0.44,0-0.67,0
		c-3.2-0.38-5.48-3.27-5.12-6.47c3.21-28.23,16.52-54.36,37.46-73.56c2.32-2.24,6.03-2.18,8.27,0.14c2.24,2.32,2.18,6.03-0.14,8.27
		c-0.07,0.07-0.14,0.13-0.21,0.2c-18.87,17.3-30.85,40.83-33.75,66.26c-0.35,2.95-2.86,5.17-5.83,5.16L144.55,249.12z
		 M219.82,155.65c-3.23-0.02-5.83-2.66-5.81-5.89c0.02-2.49,1.61-4.69,3.96-5.5c12.25-4.16,25.1-6.28,38.03-6.28
		c3.23,0,5.85,2.62,5.85,5.85s-2.62,5.85-5.85,5.85c-11.66-0.01-23.24,1.9-34.28,5.65c-0.61,0.21-1.25,0.31-1.89,0.31H219.82z"/>
</g>
<path d="M256,321.6c-16.15,0.01-31.74-5.95-43.76-16.74c-2.41-2.16-2.61-5.86-0.45-8.27c2.16-2.41,5.86-2.61,8.27-0.45
	c22.14,19.89,56.21,18.07,76.11-4.07c19.17-21.34,18.27-53.95-2.05-74.2c-2.29-2.28-2.29-5.99,0-8.28c2.28-2.29,5.99-2.29,8.28,0
	c25.63,25.61,25.64,67.14,0.04,92.76C290.11,314.69,273.41,321.61,256,321.6z"/>
<path d="M198.29,277.37c-2.65,0-4.97-1.77-5.65-4.33c-9.39-35.02,11.38-71.02,46.4-80.41c5.53-1.48,11.24-2.24,16.96-2.24
	c3.23,0,5.85,2.62,5.85,5.85c0,3.23-2.62,5.85-5.85,5.85c-29.78,0.01-53.91,24.16-53.9,53.94c0,4.71,0.62,9.4,1.84,13.96
	c0.84,3.12-1.01,6.33-4.13,7.17c0,0,0,0-0.01,0C199.32,277.3,198.8,277.37,198.29,277.37z"/>
<g id="_241957976">
	<path d="M256,261.85c-3.23,0-5.85-2.62-5.85-5.85V91.43c0-3.23,2.62-5.85,5.85-5.85s5.85,2.62,5.85,5.85V256
		C261.85,259.23,259.23,261.85,256,261.85z"/>
</g>
<g id="_241958456">
	<path d="M256,261.85c-3.23,0-5.85-2.62-5.86-5.85c0-1.55,0.62-3.05,1.72-4.14l116.37-116.37c2.29-2.29,5.99-2.29,8.28,0
		c2.29,2.29,2.29,5.99,0,8.28L260.14,260.14C259.04,261.24,257.55,261.85,256,261.85z"/>
</g>
<g id="_241958000">
	<path d="M136.78,291.73c-15.39,0-27.87-12.48-27.87-27.87S121.39,236,136.78,236s27.87,12.48,27.87,27.87
		C164.63,279.25,152.16,291.71,136.78,291.73z M136.78,247.7c-8.93,0-16.16,7.24-16.16,16.16c0,8.93,7.24,16.16,16.16,16.16
		s16.16-7.24,16.16-16.16l0,0C152.93,254.94,145.7,247.71,136.78,247.7L136.78,247.7z"/>
</g>
<g id="_241957808">
	<path d="M342.74,340.99c-16.56,0-29.99-13.43-29.99-29.99c0-16.56,13.43-29.99,29.99-29.99s29.99,13.43,29.99,29.99l0,0
		C372.73,327.57,359.3,340.99,342.74,340.99z M342.74,292.78c-10.1,0-18.29,8.19-18.29,18.29c0,10.1,8.19,18.29,18.29,18.29
		s18.29-8.19,18.29-18.29l0,0C361.03,300.96,352.84,292.78,342.74,292.78L342.74,292.78L342.74,292.78z"/>
</g>
<g id="_241958048">
	<path d="M198.41,188.04c-16.09,0-29.13-13.04-29.13-29.13s13.04-29.13,29.13-29.13c16.09,0,29.13,13.04,29.13,29.13l0,0
		C227.51,174.99,214.48,188.02,198.41,188.04z M198.41,141.49c-9.62,0-17.42,7.8-17.42,17.42s7.8,17.42,17.42,17.42
		s17.42-7.8,17.42-17.42l0,0C215.82,149.29,208.02,141.5,198.41,141.49z"/>
</g>
<path d="M222.71,393.73c-16.66,0-30.16-13.5-30.16-30.16c0-16.66,13.5-30.16,30.16-30.16s30.16,13.5,30.16,30.16
	C252.85,380.22,239.36,393.71,222.71,393.73z M222.71,345.12c-10.19,0-18.45,8.26-18.45,18.45s8.26,18.45,18.45,18.45
	s18.45-8.26,18.45-18.45C241.15,353.38,232.9,345.13,222.71,345.12z"/>
<path d="M205.17,310.32c-12.73,0.01-23.05-10.3-23.06-23.03c-0.01-12.73,10.3-23.05,23.03-23.06c12.73-0.01,23.05,10.3,23.06,23.03
	c0,0,0,0.01,0,0.01C228.19,299.99,217.89,310.3,205.17,310.32z M205.17,275.95c-6.27-0.01-11.35,5.06-11.36,11.33
	c-0.01,6.27,5.06,11.35,11.33,11.36c6.27,0.01,11.35-5.06,11.36-11.33c0-0.01,0-0.02,0-0.03c0-6.26-5.07-11.33-11.33-11.34V275.95z"
	/>
</svg>
