<?xml version="1.0" encoding="utf-8"?>
<!-- Generator: Adobe Illustrator 22.0.1, SVG Export Plug-In . SVG Version: 6.00 Build 0)  -->
<svg version="1.1" id="Layer_1" xmlns="http://www.w3.org/2000/svg" xmlns:xlink="http://www.w3.org/1999/xlink" x="0px" y="0px"
	 viewBox="0 0 68 68" style="enable-background:new 0 0 68 68;" xml:space="preserve" fill="currentColor">
<g>
	<path d="M39.608284,5.8344021c-1.5581665-0.2761841-3.1323242-0.4163208-4.7052002-0.4486084l1.8780518-1.6256106
		c0.4179688-0.3613281,0.4628906-0.9926758,0.1015625-1.4101563c-0.3613281-0.418457-0.9960938-0.4624023-1.4101563-0.1015625
		l-3.9853516,3.4497073c-0.2011719,0.1733398-0.3242188,0.4194336-0.3427925,0.684082
		c-0.0195122,0.2646484,0.0674019,0.5258789,0.24123,0.7260742l3.4414063,3.9755859
		c0.1972656,0.2285156,0.4765625,0.3457031,0.7558594,0.3457031c0.2324219,0,0.4658203-0.0800781,0.6542969-0.2441406
		c0.4179688-0.3613281,0.4628906-0.9926758,0.1015625-1.4101563l-2.081543-2.4046631
		c1.6702271-0.0015869,3.3452759,0.1396484,5.0014648,0.4334717c15,2.6611328,25.3398438,17.0732422,23.0498047,32.1269531
		c-0.0830078,0.5458984,0.2919922,1.0561523,0.8378906,1.1391602c0.0507813,0.0078125,0.1015625,0.0112305,0.1513672,0.0112305
		c0.4863281,0,0.9121094-0.3544922,0.9873047-0.8496094C66.7381668,24.1141872,55.6678543,8.6835232,39.608284,5.8344021z"/>
	<path d="M61.6971512,48.2206306c-0.1152344-0.5405273-0.6503906-0.8857422-1.1865234-0.769043l-5.7216797,1.2231445
		c-0.5400391,0.1157227-0.8847656,0.6469727-0.7685547,1.1870117c0.1142578,0.5400391,0.6474609,0.8813477,1.1865234,0.769043
		l3.6173096-0.7732544c-5.8952637,10.1951904-17.7114868,15.7905922-29.4571533,13.7053833
		c-4.65625-0.8256836-9.0556641-2.8134766-12.7236328-5.7470703c-0.4316406-0.3447266-1.0595703-0.2744141-1.40625,0.15625
		c-0.3447266,0.4311523-0.2744141,1.0605469,0.15625,1.4052734c3.9287109,3.1425781,8.6396484,5.2709999,13.6240234,6.1552773
		c1.7568359,0.3115234,3.5146484,0.4628906,5.2578125,0.4628906c10.5690918,0,20.5446167-5.5778847,26.0307007-14.7196083
		l0.6626587,3.0980225c0.0996094,0.4697266,0.5146484,0.7910156,0.9765625,0.7910156
		c0.0693359,0,0.1396484-0.0068359,0.2099609-0.0219727c0.5400391-0.1157227,0.8847656-0.6469727,0.7685547-1.1870117
		L61.6971512,48.2206306z"/>
	<path d="M11.7342606,45.530201c-0.5371094-0.1347656-1.078125,0.1928711-1.2119141,0.7294922l-0.84021,3.3809814
		c-3.2540283-5.7240601-4.4113159-12.3491821-3.2496338-18.9029522c1.734375-9.7729492,8.2958984-17.7797852,17.5546875-21.4189453
		c0.5136719-0.2021484,0.7666016-0.7827148,0.5644531-1.2963867c-0.203125-0.5146484-0.7841797-0.7661133-1.296875-0.5649414
		C13.3446121,11.3529568,6.3201981,19.9252224,4.4637527,30.388113c-1.2448733,7.0183086-0.0046387,14.1129131,3.4807129,20.2420025
		l-3.3283691-0.8274536c-0.5351563-0.1323242-1.0791018,0.1923828-1.2119143,0.7294922
		c-0.1328125,0.5361328,0.1933594,1.0786133,0.7294924,1.2119141l5.7041016,1.4174805
		c0.0008545,0.0002441,0.00177,0.000061,0.0026245,0.0003052c0.0817871,0.0210571,0.1656494,0.0333862,0.2503052,0.0333862
		c0.1943359,0,0.3896484-0.0561523,0.5625-0.1738281c0.2398071-0.1635742,0.3793945-0.4136353,0.4190063-0.6799316
		l1.3915405-5.5993652C12.5965652,46.2059822,12.2703934,45.6635017,11.7342606,45.530201z"/>
	<path d="M35.0037918,18.2333279v-1.6469727c0-0.5522461-0.4472656-1-1-1s-1,0.4477539-1,1v1.6469727c0,0.5522461,0.4472656,1,1,1
		S35.0037918,18.785574,35.0037918,18.2333279z"/>
	<path d="M42.4276199,21.4911404c0.3457031,0,0.6816406-0.1791992,0.8671875-0.5l0.8242188-1.4267578
		c0.2763672-0.4780273,0.1123047-1.0898438-0.3662109-1.3657227c-0.4775391-0.2773438-1.0898438-0.1132813-1.3662109,0.3657227
		l-0.8242188,1.4267578c-0.2763672,0.4780273-0.1123047,1.0898438,0.3662109,1.3657227
		C42.0858231,21.4481716,42.2576981,21.4911404,42.4276199,21.4911404z"/>
	<path d="M49.5233231,24.9686794l-1.4267578,0.8237305c-0.4785156,0.2763672-0.6425781,0.8876953-0.3662109,1.3662109
		c0.1855469,0.3208008,0.5214844,0.5,0.8671875,0.5c0.1699219,0,0.3417969-0.0429688,0.4990234-0.1337891l1.4267578-0.8237305
		c0.4785156-0.2763672,0.6425781-0.8876953,0.3662109-1.3662109C50.6121902,24.8558865,49.9998856,24.6928005,49.5233231,24.9686794
		z"/>
	<path d="M49.8534012,35.0834236c0,0.5522461,0.4472656,1,1,1h1.6474609c0.5527344,0,1-0.4477539,1-1s-0.4472656-1-1-1h-1.6474609
		C50.3006668,34.0834236,49.8534012,34.5311775,49.8534012,35.0834236z"/>
	<path d="M23.8885574,19.5643826l0.8242188,1.4267578c0.1855469,0.3208008,0.5214844,0.5,0.8671875,0.5
		c0.1699219,0,0.3417969-0.0429688,0.4990234-0.1342773c0.4785156-0.2758789,0.6425781-0.8876953,0.3662109-1.3657227
		l-0.8242188-1.4267578c-0.2773438-0.4790039-0.890625-0.6430664-1.3662109-0.3657227
		C23.7762527,18.4745388,23.6121902,19.0863552,23.8885574,19.5643826z"/>
	<path d="M18.4842606,24.9686794c-0.4775391-0.2758789-1.0898628-0.112793-1.3662109,0.3662109
		c-0.2763672,0.4785156-0.1123047,1.0898438,0.3662109,1.3662109l1.4267578,0.8237305
		c0.1572266,0.0908203,0.3291016,0.1337891,0.4990234,0.1337891c0.3457031,0,0.6816406-0.1791992,0.8671875-0.5
		c0.2763672-0.4785156,0.1123047-1.0898438-0.3662109-1.3662109L18.4842606,24.9686794z"/>
	<path d="M17.1541824,36.0834236c0.5527344,0,1-0.4477539,1-1s-0.4472656-1-1-1h-1.6474609c-0.5527344,0-1,0.4477539-1,1
		s0.4472656,1,1,1H17.1541824z"/>
	<path d="M23.0965652,33.5209236c-0.4951172,3.6206055,0.734375,7.1162109,3.3710938,9.5893555
		c2.2167969,2.0791016,3.5576172,4.921875,3.7441406,7.8901367h2.7919922v-8.8496094h-1.7353516
		c-2.0605469,0-3.7363281-1.6757813-3.7363281-3.7353516c0-2.0600586,1.6757813-3.7358398,3.7363281-3.7358398
		c1.0835571,0,2.0524292,0.4713745,2.7353516,1.2109375c0.6829224-0.739563,1.6517944-1.2109375,2.7353516-1.2109375
		c2.0605469,0,3.7363281,1.6757813,3.7363281,3.7358398c0,2.0595703-1.6757813,3.7353516-3.7363281,3.7353516h-1.7353516v8.8496094
		h2.7929688c0.1894531-2.9526367,1.5390625-5.7675781,3.8505859-7.9936523
		c2.1738281-2.0942383,3.3710938-4.9106445,3.3710938-7.9291992c0-3.1293926-1.3359375-6.1201153-3.6640625-8.2050762
		c-2.3632813-2.1157227-5.4287109-3.0864258-8.609375-2.7329102C27.8211746,24.6844997,23.7625809,28.6303005,23.0965652,33.5209236
		z"/>
	<path d="M38.4754715,38.4154549c0-0.9570313-0.7792969-1.7358398-1.7363281-1.7358398s-1.7353516,0.7788086-1.7353516,1.7358398
		v1.7353516h1.7353516C37.6961746,40.1508064,38.4754715,39.3724861,38.4754715,38.4154549z"/>
	<path d="M31.2684402,36.679615c-0.9570313,0-1.7363281,0.7788086-1.7363281,1.7358398s0.7792969,1.7353516,1.7363281,1.7353516
		h1.7353516v-1.7353516C33.0037918,37.4584236,32.2254715,36.679615,31.2684402,36.679615z"/>
	<path d="M28.7498856,53.0004158c-0.0957031,0-0.1738281,0.0776367-0.1738281,0.1733398
		c0,2.9926758,2.4345703,5.4277344,5.4277344,5.4277344s5.4277344-2.4350586,5.4277344-5.4277344
		c0-0.0957031-0.0771484-0.1733398-0.1728516-0.1733398h-0.484375h-9.5400391H28.7498856z"/>
</g>
</svg>
